<svg width="137" height="20" viewBox="0 0 137 20" fill="none" xmlns="http://www.w3.org/2000/svg">
<g clip-path="url(#clip0_1027_3495)">
<path d="M0 0.367898H7.48664C8.89586 0.35924 10.2952 0.604128 11.6176 1.09069C12.8259 1.53643 13.9321 2.22113 14.8696 3.10421C15.7634 3.97517 16.4817 5.00914 16.9863 6.15046C17.4929 7.34101 17.7393 8.62581 17.7094 9.91926V9.97071C17.7141 11.2619 17.4684 12.542 16.9863 13.74C16.5002 14.8915 15.7792 15.9292 14.8696 16.7863C13.9403 17.68 12.8319 18.3664 11.6176 18.8C10.3019 19.3111 8.89784 19.557 7.48664 19.5228H0V0.367898ZM7.48664 15.7538C8.29576 15.7553 9.0987 15.6155 9.85983 15.3407C10.551 15.1007 11.1718 14.6928 11.6668 14.1541C12.1667 13.6272 12.5687 13.0152 12.8534 12.3471C13.1332 11.6048 13.2732 10.8169 13.2665 10.0236V9.9717C13.2638 9.1794 13.124 8.39354 12.8534 7.64873C12.6013 6.94845 12.1959 6.31323 11.6668 5.78981C11.1624 5.26194 10.5445 4.85627 9.85983 4.60322C9.09895 4.3284 8.29576 4.18889 7.48664 4.19062H4.23458V15.7558L7.48664 15.7538Z" fill="black"/>
<path d="M21.6327 0.367676H25.8666V19.5226H21.6327V0.367676Z" fill="black"/>
<path d="M39.8576 19.8849C38.4654 19.8935 37.0831 19.6486 35.7791 19.1621C34.6024 18.6896 33.5315 17.9876 32.6294 17.0966C31.7124 16.1767 30.9924 15.0799 30.5132 13.8728C30.0338 12.6656 29.8053 11.3734 29.8416 10.0753V10.0238C29.8288 8.71009 30.093 7.40823 30.6164 6.20308C31.1133 5.02713 31.8322 3.95778 32.7333 3.05343C33.6282 2.14116 34.6998 1.4211 35.8825 0.936515C37.1601 0.412851 38.5292 0.149659 39.9097 0.162274C40.687 0.155101 41.4637 0.207046 42.233 0.31737C42.9016 0.427693 43.5583 0.600351 44.1948 0.833365C44.7912 1.04585 45.3623 1.32265 45.8986 1.65906C46.4389 2.00388 46.9563 2.38333 47.4476 2.79494L44.8144 5.99604C44.4533 5.68832 44.0916 5.42835 43.7305 5.17035C43.3691 4.93338 42.9892 4.72609 42.5944 4.55071C42.1813 4.37607 41.7474 4.25462 41.3036 4.18907C40.8116 4.08369 40.3095 4.03175 39.8064 4.03397C39.0583 4.02828 38.3182 4.18709 37.638 4.49901C36.981 4.82182 36.3866 5.2589 35.8825 5.78974C35.3699 6.34556 34.9672 6.99365 34.6959 7.69962C34.4252 8.44442 34.2855 9.23054 34.2828 10.0231V10.0745C34.281 10.901 34.4208 11.7217 34.6959 12.5011C34.9586 13.2143 35.3642 13.8661 35.8881 14.4165C36.4121 14.9671 37.0431 15.4044 37.7421 15.702C38.4765 16.0142 39.2676 16.1725 40.0656 16.1668C41.4775 16.2175 42.8689 15.8197 44.0409 15.0307V12.2941H39.8071V8.67966H48.1194V16.9932C47.0506 17.8684 45.8699 18.5976 44.6086 19.1613C43.0671 19.6266 41.4674 19.8703 39.8576 19.8849Z" fill="black"/>
<path d="M52.249 0.367676H56.4829V19.5226H52.249V0.367676Z" fill="black"/>
<path d="M61.2843 0.367676H75.6909V4.13697H65.415V8.00867H74.4501V11.778H65.415V15.805H75.7923V19.5738H61.2327V0.367676H61.2843Z" fill="black"/>
<path d="M88.8029 19.8851C87.4107 19.894 86.0285 19.6489 84.7244 19.1623C83.5477 18.6899 82.4768 17.9879 81.5747 17.0969C80.6577 16.1769 79.9379 15.0799 79.4585 13.8728C78.9794 12.6656 78.7506 11.3734 78.7869 10.0753V10.0238C78.7741 8.71009 79.038 7.40823 79.5612 6.20308C80.0581 5.02713 80.777 3.95779 81.6779 3.05343C82.5733 2.14116 83.6446 1.4211 84.8275 0.936515C86.1051 0.412851 87.474 0.149659 88.8546 0.162274C89.6318 0.155101 90.4085 0.207046 91.178 0.31737C91.8467 0.427693 92.5034 0.600351 93.1399 0.833365C93.7363 1.04585 94.3074 1.32265 94.8437 1.65906C95.3839 2.00388 95.9014 2.38333 96.3927 2.79494L93.7595 5.99604C93.3984 5.68833 93.0367 5.42835 92.6753 5.17035C92.3139 4.93338 91.9342 4.72634 91.5394 4.55071C91.1263 4.37607 90.6925 4.25462 90.2487 4.18907C89.7567 4.08369 89.2548 4.03175 88.7514 4.03397C88.0031 4.02828 87.2628 4.18709 86.5825 4.49901C85.9258 4.82182 85.3314 5.25891 84.8273 5.78974C84.3147 6.34556 83.912 6.99365 83.6407 7.69962C83.3701 8.44443 83.2303 9.23054 83.2276 10.0231V10.0745C83.2259 10.901 83.3656 11.7217 83.6407 12.5012C83.9034 13.2143 84.309 13.8661 84.833 14.4165C85.3569 14.9668 85.9879 15.4044 86.6869 15.702C87.4214 16.0144 88.2124 16.1725 89.0104 16.167C90.4223 16.2178 91.8138 15.82 92.9858 15.0309V12.2944H88.7522V8.67991H97.0635V16.9935C95.9947 17.8686 94.814 18.5979 93.5527 19.1616C92.0119 19.6269 90.4125 19.8703 88.8029 19.8851Z" fill="black"/>
<path d="M110.282 19.8851C108.889 19.894 107.507 19.6489 106.203 19.1623C105.016 18.7092 103.942 18.0044 103.054 17.0969C102.137 16.1769 101.416 15.0801 100.937 13.873C100.458 12.6659 100.229 11.3737 100.265 10.0753V10.0238C100.253 8.71009 100.517 7.40823 101.04 6.20308C101.537 5.02713 102.256 3.95779 103.157 3.05343C104.052 2.14141 105.123 1.4211 106.306 0.936515C107.584 0.412851 108.953 0.149659 110.333 0.162274C111.11 0.155101 111.887 0.207046 112.657 0.31737C113.325 0.427693 113.982 0.600351 114.619 0.833365C115.215 1.04585 115.786 1.32265 116.323 1.65906C116.863 2.00363 117.381 2.38308 117.872 2.79494L115.239 5.99604C114.877 5.68833 114.516 5.42835 114.154 5.17035C113.793 4.93338 113.413 4.72634 113.019 4.55071C112.606 4.37607 112.172 4.25462 111.728 4.18907C111.236 4.08369 110.734 4.03175 110.231 4.03397C109.483 4.02828 108.742 4.18709 108.062 4.49901C107.405 4.82182 106.811 5.25891 106.307 5.78974C105.794 6.34556 105.392 6.99365 105.12 7.69962C104.825 8.43775 104.684 9.22831 104.707 10.0231V10.0745C104.705 10.901 104.845 11.7217 105.12 12.5012C105.372 13.2168 105.777 13.8688 106.307 14.4115C106.839 14.956 107.47 15.3938 108.166 15.702C108.9 16.0144 109.691 16.1727 110.489 16.167C111.901 16.2178 113.293 15.82 114.465 15.0309V12.2944H110.231V8.67991H118.542V16.9935C117.473 17.8686 116.293 18.5979 115.031 19.1616C113.491 19.6269 111.891 19.8703 110.282 19.8851Z" fill="black"/>
<path d="M129.332 19.8329C127.869 19.8315 126.418 19.5693 125.047 19.0587C123.636 18.5373 122.339 17.7482 121.227 16.7352L123.705 13.7407C124.518 14.4283 125.421 15.0015 126.39 15.4445C127.349 15.8672 128.388 16.0787 129.436 16.0646C130.138 16.1079 130.838 15.9464 131.449 15.5996C131.675 15.4566 131.86 15.2582 131.986 15.023C132.113 14.788 132.177 14.5246 132.172 14.2574V14.2055C132.176 13.9559 132.123 13.7088 132.017 13.4824C131.883 13.245 131.687 13.0486 131.449 12.9147C131.08 12.675 130.681 12.4841 130.263 12.347C129.622 12.116 128.966 11.9263 128.301 11.7793C127.32 11.5206 126.442 11.2624 125.668 11.0046C124.954 10.7281 124.278 10.3637 123.654 9.92042C123.102 9.49867 122.659 8.94953 122.364 8.31999C122.031 7.5742 121.873 6.76285 121.899 5.94706V5.89511C121.888 5.08055 122.047 4.27242 122.364 3.52193C122.674 2.81521 123.153 2.19483 123.758 1.71495C124.376 1.1809 125.096 0.777203 125.875 0.528357C126.743 0.253538 127.648 0.114274 128.559 0.115263C129.876 0.102895 131.185 0.31241 132.431 0.734904C133.609 1.15146 134.708 1.76244 135.684 2.54237L133.515 5.69203C132.711 5.15946 131.865 4.69318 130.985 4.29765C130.204 3.95407 129.36 3.77819 128.507 3.78141C127.854 3.73466 127.203 3.89742 126.649 4.24595C126.457 4.37928 126.301 4.55664 126.194 4.76319C126.086 4.96973 126.029 5.19928 126.029 5.43254V5.48449C126.026 5.76747 126.078 6.04823 126.184 6.31068C126.335 6.5662 126.548 6.77943 126.804 6.93032C127.204 7.16902 127.64 7.34316 128.094 7.44656C128.61 7.60166 129.334 7.80771 130.16 8.01426C131.04 8.2443 131.903 8.53792 132.741 8.89313C133.431 9.17463 134.075 9.55754 134.652 10.0293C135.149 10.4587 135.553 10.9858 135.838 11.578C136.124 12.2647 136.264 13.0028 136.251 13.7464V13.7983C136.284 14.6314 136.124 15.4608 135.784 16.222C135.444 16.9831 134.932 17.6554 134.29 18.1867C133.637 18.7159 132.881 19.1027 132.07 19.3221C131.206 19.6932 130.271 19.8678 129.332 19.8329Z" fill="black"/>
</g>
<defs>
<clipPath id="clip0_1027_3495">
<rect width="136.254" height="19.7701" fill="white" transform="translate(0 0.114746)"/>
</clipPath>
</defs>
</svg>
